<?xml version="1.0" encoding="utf-8"?>
<svg  xmlns="http://www.w3.org/2000/svg"  viewBox="0 0 350 50">
<g>
	<g>
		<path d="M1.4,19c0-8.8,1.9-14.7,11.1-14.7c3.1,0,5.5,0.7,7.3,1.9l-2.4,3.7c-1.1-0.7-2.7-1.2-5-1.2c-5,0-6.5,3-6.5,10.4
			c0,7.4,1.4,10.5,6.5,10.5c2.4,0,3.8-0.5,5.4-1.5l2.2,3.5c-2.1,1.4-4.2,2.1-7.8,2.1C3.6,33.6,1.4,27.9,1.4,19z"/>
		<path d="M32.6,22.7h-4.8v10.6h-4.4V4.6h10.1c6.3,0,8.8,3,8.8,8.8c0,4.5-1.6,7.7-5.3,8.9l5,11.1h-4.7L32.6,22.7z M33.4,18.7
			c3.2,0,4.5-1.4,4.5-5.1c0-3.7-1.4-5-4.5-5h-5.5v10.1H33.4z"/>
		<path d="M46.4,4.6h16.4v4.1h-12v7.8h11.4v4.1H50.8v8.7h12.1v4H46.4V4.6z"/>
		<path d="M73.8,4.4h4.8l8.9,28.9h-4.6l-1.6-5.5H70.9l-1.6,5.5h-4.5L73.8,4.4z M80.1,23.8l-4-13.2l-4,13.2H80.1z"/>
		<path d="M93.5,8.7h-7.9V4.6h20.5v4.1h-8v24.6h-4.5V8.7z"/>
		<path d="M109.4,4.6h4.5v28.7h-4.5V4.6z"/>
		<path d="M117.3,4.6h4.6l6.7,22.3l6.6-22.3h4.5l-8.8,28.9H126L117.3,4.6z"/>
		<path d="M142.7,4.6h16.4v4.1h-12v7.8h11.4v4.1h-11.4v8.7h12.1v4h-16.5V4.6z"/>
	</g>
	<g>
		<path d="M186,2.2h15v2.1h-4.3v4.5h3.8v24.4h-2.1V31h-9.8v2.5h-2V8.8h3.7V4.3H186V2.2z M196.4,19.7c-1.4,0-1.8-0.3-1.8-2v-6.9h-2.2
			v2.9c0,2.3-0.5,5.1-2.9,7.2c-0.2-0.3-0.5-0.6-0.9-0.8v3h9.8v-3.4h-0.1H196.4z M188.7,10.8v8.9c1.9-1.8,2.3-4.1,2.3-6v-2.8H188.7z
			 M198.4,29v-3.9h-9.8V29H198.4z M194.7,4.3h-2.3v4.5h2.3V4.3z M198.4,10.8H196v6.9c0,0.5,0.1,0.5,0.5,0.5h1.4c0.2,0,0.4,0,0.4,0
			V10.8z M218.7,14.7v2.2h-17v-2.2h7.8V8.8h-4.2c-0.5,1.6-1.2,3-1.8,4.2c-0.5-0.3-1.5-0.8-2-1.1c1.5-2.4,2.6-6.2,3.1-9.8l2.2,0.4
			c-0.3,1.4-0.6,2.8-0.9,4.2h3.5V0.8h2.3v5.8h6.1v2.2h-6.1v5.9H218.7z M203,20.2h14.5v13.3h-2.3v-1.6h-10v1.7H203V20.2z M205.2,22.4
			v7.3h10v-7.3H205.2z"/>
		<path d="M240,11.5c-0.1,0.3-0.3,0.6-0.5,0.9c3.9,4.7,9.2,6.6,15.3,8c-0.5,0.5-1.1,1.3-1.3,2c-1.9-0.5-3.7-1-5.4-1.7v12.8h-2.3
			v-1.3h-15v1.4h-2.3V21c-1.7,0.7-3.4,1.3-5.3,1.9c-0.3-0.6-0.8-1.4-1.3-1.8c6.7-1.7,12.5-4.9,15.6-9.5h-9.6V9.8h20.7v1.7H240z
			 M225.8,11.8h-2.3V6.3h13.2V0.8h2.3v2h11.2v1.5h-11.2v2H253v5.5h-2.4V8h-24.9V11.8z M232.8,12.5c-1.8,1.8-4.8,3.6-7.2,4.8
			c-0.3-0.4-1-1.2-1.5-1.6c2.4-1,5.1-2.4,6.7-3.9L232.8,12.5z M245.8,20.6h-15v2.2h15V20.6z M230.8,26.6h15v-2.3h-15V26.6z
			 M245.8,30.5v-2.3h-15v2.3H245.8z M244.3,18.9c-2.2-1.2-4.2-2.8-6-4.9c-1.5,1.9-3.5,3.5-5.7,4.9H244.3z M245.1,11.9
			c2.3,0.9,5.2,2.4,6.7,3.6l-1.4,1.5c-1.5-1.1-4.3-2.7-6.7-3.7L245.1,11.9z"/>
		<path d="M267.7,1.6c-0.9,2.6-2,5.3-3.3,7.8v24.2h-2.3V13.3c-1,1.7-2.1,3.1-3.2,4.4c-0.2-0.6-0.9-1.8-1.4-2.3
			c3.2-3.5,6.2-8.9,8-14.4L267.7,1.6z M281.1,10.5c2.2,6.1,5.9,12.2,9.9,15.3c-0.5,0.4-1.4,1.3-1.8,1.9c-3.9-3.4-7.5-9.7-9.7-16.1
			v13h6v2.2h-6v6.6h-2.3v-6.6h-6.1v-2.2h6.1V11.8c-2.3,6.4-6,12.5-9.9,16c-0.4-0.5-1.2-1.4-1.7-1.8c4-3.1,7.8-9.3,10-15.4h-8.7V8.2
			h10.3V0.9h2.3v7.3h10.9v2.3H281.1z"/>
		<path d="M293.4,16.9c1-2.4,1.6-6.3,1.9-9.2l1.9,0.3c-0.2,2.9-0.8,7-1.8,9.6L293.4,16.9z M298.5,0.8h2.3v32.8h-2.3V0.8z M303,6.6
			c1.1,2.1,2.3,4.9,2.8,6.5l-1.8,0.9c-0.5-1.7-1.6-4.5-2.7-6.6L303,6.6z M326.6,16v2.1h-21.8V16h5.6c0.4-1.5,0.8-3.4,1.2-5.4h-4.8
			V8.5h5.2c0.3-1.4,0.5-2.8,0.7-4.1h-6.9V2.3h19.9v2.1H315c-0.2,1.3-0.5,2.7-0.7,4.1h6.9l0.4-0.1l1.7,0.1c-0.1,2.3-0.3,5.1-0.6,7.5
			H326.6z M307.1,21.3h16.8v12.2h-2.3V32h-12.3v1.7h-2.2V21.3z M309.3,23.4v6.4h12.3v-6.4H309.3z M313.9,10.7
			c-0.4,2-0.8,3.9-1.1,5.4h7.6c0.2-1.7,0.4-3.7,0.5-5.4H313.9z"/>
	</g>
</g>
</svg>
