<svg xmlns="http://www.w3.org/2000/svg" width="50" height="55" viewBox="0 0 50 55">
  <defs>
    <style>
      .cls-1 {
        fill-rule: evenodd;
      }
    </style>
  </defs>
  <path id="logomark.svg" class="cls-1" d="M89.555,125.691a1.777,1.777,0,1,1-1.777-1.764A1.771,1.771,0,0,1,89.555,125.691Zm46.445,0a1.778,1.778,0,1,1-1.777-1.764A1.771,1.771,0,0,1,136,125.691ZM112.777,85.764A1.777,1.777,0,1,1,111,84,1.77,1.77,0,0,1,112.777,85.764ZM111,139l7.741-13.309H103.259Zm23.223-39.927H118.741l7.741,13.309Zm-46.446,0h15.482l-7.741,13.309Z" transform="translate(-86 -84)"/>
</svg>
