<svg xmlns="http://www.w3.org/2000/svg">
    <symbol id="svg_close" viewBox="0 0 18.06 18.062">
       <path d="M1316.97,63.014L1333.01,47" transform="translate(-1315.97 -45.969)"/> <path d="M1316.96,46.956L1333.02,63" transform="translate(-1315.97 -45.969)"/> 
    </symbol>
    <symbol id="svg_icon-facebook" viewBox="0 0 8 16">
       <path d="M1274.99,110.256h-2.66v-1.512a0.8,0.8,0,0,1,.84-0.989h1.82v-2.744h-2.68c-3.13,0-3.59,2.146-3.59,3.546v1.7H1267v2.763h1.72V121h3.61v-7.98h2.36Z" transform="translate(-1267 -105)"/> 
    </symbol>
    <symbol id="svg_icon-left" viewBox="0 0 22 18">
       <path d="M1046.34,372.724L1038,365l8.34-7.724" transform="translate(-1037 -356)"/> <path d="M1058,365.038h-18" transform="translate(-1037 -356)"/> 
    </symbol>
    <symbol id="svg_icon-medium" viewBox="0 0 20 20">
       <path d="M1194.14,118.48c0-.29-0.14-11.1-0.14-11.48,0-.294.01-1.139,0.85-0.883,0.3,0.092,4.45,2.311,4.92,2.568a1.89,1.89,0,0,1,.25,1c0-.092-0.01,11.291-0.02,11.582-0.03.83-.17,1.139-0.89,0.646-0.28-.194-4.42-2.623-4.65-2.788A0.651,0.651,0,0,1,1194.14,118.48Zm6.84-7.9c-0.14.7,0.01,5.585,0.01,5.716,0,0.11,4.93,2.037,5.51,2.415C1206.69,118.838,1201.01,110.428,1200.98,110.581Zm12.03,0.2-5.52,8.309c0.41,0.33,4.06,2.024,4.6,2.287,0.69,0.334.93,0.479,0.91-.338C1212.99,120.735,1213.02,112.311,1213.01,110.782Zm-0.05-1.606c0.02-.077-5-2.867-5.36-3.068a0.984,0.984,0,0,0-1.17.3c-0.22.338-3.2,5.023-3.25,5.115,0.08,0.022,3.61,5.556,3.84,5.868C1207.3,117.108,1212.89,109.384,1212.96,109.176Z" transform="translate(-1193.5 -101)"/> 
    </symbol>
    <symbol id="svg_icon-right" viewBox="0 0 22 18">
       <path d="M1100.66,357.276L1109,365l-8.34,7.724" transform="translate(-1088 -356)"/> <path d="M1089,364.962h18" transform="translate(-1088 -356)"/> 
    </symbol>
    <symbol id="svg_mark" viewBox="0 0 50 55">
       <path d="M89.555,125.691a1.777,1.777,0,1,1-1.777-1.764A1.771,1.771,0,0,1,89.555,125.691Zm46.445,0a1.778,1.778,0,1,1-1.777-1.764A1.771,1.771,0,0,1,136,125.691ZM112.777,85.764A1.777,1.777,0,1,1,111,84,1.77,1.77,0,0,1,112.777,85.764ZM111,139l7.741-13.309H103.259Zm23.223-39.927H118.741l7.741,13.309Zm-46.446,0h15.482l-7.741,13.309Z" transform="translate(-86 -84)"/> 
    </symbol>
    <symbol id="svg_star" viewBox="0 0 8.938 10.06">
       <circle cx="0.984" cy="1" r="0.984"/> <circle cx="1.016" cy="9.06" r="0.985"/> <circle cx="7.938" cy="5.06" r="1"/> 
    </symbol>
    <symbol id="svg_zoom" viewBox="0 0 14 14">
       <circle cx="6.16" cy="6.16" r="5.16"/> <path d="M1121,2941l2,2" transform="translate(-1110.84 -2930.84)"/> 
    </symbol></svg>