<svg xmlns="http://www.w3.org/2000/svg">
    <symbol id="svg_close" viewBox="0 0 18.06 18.062">
       <path d="M1316.97,63.014L1333.01,47" transform="translate(-1315.97 -45.969)"/> <path d="M1316.96,46.956L1333.02,63" transform="translate(-1315.97 -45.969)"/> 
    </symbol>
    <symbol id="svg_icon-facebook" viewBox="0 0 8 16">
       <path d="M1274.99,110.256h-2.66v-1.512a0.8,0.8,0,0,1,.84-0.989h1.82v-2.744h-2.68c-3.13,0-3.59,2.146-3.59,3.546v1.7H1267v2.763h1.72V121h3.61v-7.98h2.36Z" transform="translate(-1267 -105)"/> 
    </symbol>
    <symbol id="svg_icon-left" viewBox="0 0 22 18">
       <path d="M1046.34,372.724L1038,365l8.34-7.724" transform="translate(-1037 -356)"/> <path d="M1058,365.038h-18" transform="translate(-1037 -356)"/>&gt; 
    </symbol>
    <symbol id="svg_icon-medium" viewBox="0 0 20 20">
       <path d="M1194.14,118.48c0-.29-0.14-11.1-0.14-11.48,0-.294.01-1.139,0.85-0.883,0.3,0.092,4.45,2.311,4.92,2.568a1.89,1.89,0,0,1,.25,1c0-.092-0.01,11.291-0.02,11.582-0.03.83-.17,1.139-0.89,0.646-0.28-.194-4.42-2.623-4.65-2.788A0.651,0.651,0,0,1,1194.14,118.48Zm6.84-7.9c-0.14.7,0.01,5.585,0.01,5.716,0,0.11,4.93,2.037,5.51,2.415C1206.69,118.838,1201.01,110.428,1200.98,110.581Zm12.03,0.2-5.52,8.309c0.41,0.33,4.06,2.024,4.6,2.287,0.69,0.334.93,0.479,0.91-.338C1212.99,120.735,1213.02,112.311,1213.01,110.782Zm-0.05-1.606c0.02-.077-5-2.867-5.36-3.068a0.984,0.984,0,0,0-1.17.3c-0.22.338-3.2,5.023-3.25,5.115,0.08,0.022,3.61,5.556,3.84,5.868C1207.3,117.108,1212.89,109.384,1212.96,109.176Z" transform="translate(-1193.5 -101)"/> 
    </symbol>
    <symbol id="svg_icon-right" viewBox="0 0 22 18">
       <path d="M1100.66,357.276L1109,365l-8.34,7.724" transform="translate(-1088 -356)"/> <path d="M1089,364.962h18" transform="translate(-1088 -356)"/> 
    </symbol>
    <symbol id="svg_mark" viewBox="0 0 50 55">
       <path d="M25,3.5C11.2,3.5,0,14.7,0,28.5S11.2,53.4,25,53.4s24.9-11.2,24.9-24.9S38.7,3.5,25,3.5z M42.5,46H7.4V10.9
	h35.1V46z"/>&gt; 
    </symbol>
    <symbol id="svg_star" viewBox="0 0 8.938 10.06">
       <circle cx="0.984" cy="1" r="0.984"/> <circle cx="1.016" cy="9.06" r="0.985"/> <circle cx="7.938" cy="5.06" r="1"/> 
    </symbol>
    <symbol id="svg_zoom" viewBox="0 0 14 14">
       <circle cx="6.16" cy="6.16" r="5.16"/> <path d="M1121,2941l2,2" transform="translate(-1110.84 -2930.84)"/> 
    </symbol>
    <symbol id="wechat" viewBox="5 75 1024 1024">
       <path d="M816.240189 583.92103c-24.158213 0-43.833321-20.086477-43.833321-45.01831 0-24.791639 19.676132-44.878117 43.833321-44.878117 24.159236 0 43.830251 20.086477 43.830251 44.878117C860.07044 563.834552 840.400448 583.92103 816.240189 583.92103M590.784344 583.92103c-24.163329 0-43.833321-20.086477-43.833321-45.01831 0-24.791639 19.671015-44.878117 43.833321-44.878117 24.15412 0 43.825135 20.086477 43.825135 44.878117C634.609479 563.834552 614.938464 583.92103 590.784344 583.92103M1017.538845 647.868457c0-145.438417-127.686101-264.520559-289.518906-274.78739-7.573489-0.419556-15.162328-0.710175-22.747073-0.710175-172.507936 0-312.281329 123.363655-312.281329 275.497565 0 22.941502 3.235694 45.158503 9.269108 66.38392 33.56956 120.100332 156.483984 209.128995 303.011198 209.128995 49.862641 0 96.915283-10.265808 138.632407-28.64234l70.097498 48.578392c0 0 18.688641 13.245675 16.865109-12.256138l-19.807115-76.064396C976.386586 804.568359 1017.538845 730.488153 1017.538845 647.868457M227.097228 338.03897c-24.173562 0-43.831274-20.074198-43.831274-44.86686 0-24.926716 19.658735-45.013193 43.831274-45.013193 24.293289 0 43.826158 20.086477 43.826158 45.013193C270.924409 317.963749 251.390517 338.03897 227.097228 338.03897M503.120772 248.158916c24.173562 0 43.830251 20.086477 43.830251 45.013193 0 24.792663-19.656689 44.86686-43.830251 44.86686-24.295336 0-43.831274-20.074198-43.831274-44.86686C459.288474 268.245394 478.825436 248.158916 503.120772 248.158916M705.273888 349.428368c6.734378 0 13.331633 0.295735 19.946284 0.586354-25.711592-154.00042-176.020946-272.244474-357.650633-272.244474-199.61327 0-361.448122 142.895501-361.448122 318.956356 0 98.156554 50.29243 185.900967 129.241526 244.450455l-26.698059 102.137215c0 0-9.121751 33.901111 25.434276 18.672268l99.596346-68.960605c41.438785 14.675234 86.532819 22.801309 133.874033 22.801309 4.072759 0 7.998161-0.290619 11.932774-0.290619-5.760191-21.801539-8.846482-44.447305-8.846482-67.664076C370.655831 483.343333 520.81783 349.428368 705.273888 349.428368" p-id="2524"/> 
    </symbol>
    <symbol id="weibo" viewBox="160 230 1024 1024">
       <path d="M678.217672 504.742712c-26.849508-5.223978-13.770632-19.686365-13.770632-19.686365s26.250874-43.342134-5.223978-74.856895c-39.025828-39.025828-133.913942 4.964058-133.913942 4.964058-36.178991 11.268648-26.593681-5.135974-21.456684-32.981159 0-32.854269-11.268648-88.3717-107.755166-55.562457-96.398514 32.985252-179.158403 148.551314-179.158403 148.551314-57.545624 76.800153-49.946552 136.160099-49.946552 136.160099 14.374382 131.067105 153.644309 167.030178 261.918291 175.576831 113.970728 8.893554 267.74295-39.285748 314.366827-138.362254 46.668902-99.161441-38.074154-138.446165-65.055668-143.79908L678.217672 504.742712zM437.369256 749.95246c-113.107057 5.26491-204.541513-51.417043-204.541513-126.877689 0-75.592652 91.434455-136.203078 204.541513-141.384078 113.195062-5.223978 204.801433 41.399899 204.801433 116.820636C642.170688 673.928996 550.564317 744.816486 437.369256 749.95246L437.369256 749.95246zM414.788981 531.421328c-113.75174 13.338796-100.627838 119.886461-100.627838 119.886461s-1.167592 33.756825 30.519084 50.941206c66.571185 36.048007 135.124514 14.202467 169.749102-30.479175C549.053917 627.044176 528.762779 518.210445 414.788981 531.421328L414.788981 531.421328zM386.084219 681.007205c-21.24179 2.5071-38.382169-9.797134-38.382169-27.541263 0-17.699104 15.198144-36.2189 36.43891-38.421055 24.391527-2.375094 40.277332 11.69946 40.277332 29.483498C424.462295 662.232606 407.233911 678.589133 386.084219 681.007205L386.084219 681.007205zM453.170127 623.850437c-7.210215 5.351891-16.060791 4.621251-19.85828-1.814322-3.973498-6.304589-2.462075-16.405645 4.793166-21.669532 8.417717-6.259564 17.22429-4.449335 20.977777 1.810229C462.924281 608.652294 460.205357 618.282628 453.170127 623.850437L453.170127 623.850437zM733.60412 458.594673c9.198499 0 17.012466-6.779404 18.307971-15.629979 0.171915-0.64673 0.255827-1.206478 0.255827-1.986237 13.858636-124.935454-102.399181-103.433744-102.399181-103.433744-10.316973 0-18.562774 8.329712-18.562774 18.778692 0 10.229992 8.201799 18.6078 18.562774 18.6078 83.579557-18.435884 65.100694 65.055668 65.100694 65.055668C714.829522 450.307939 723.287147 458.594673 733.60412 458.594673L733.60412 458.594673zM720.049407 240.494353c-40.232306-9.4093-81.548294-1.295506-93.116771 0.907673-0.907673 0.088004-1.726318 0.906649-2.550079 1.078565-0.431835 0.083911-0.687662 0.475837-0.687662 0.475837-11.440563 3.237741-19.774369 13.814634-19.774369 26.290783 0 14.893198 12.043291 27.109428 27.15343 27.109428 0 0 14.594393-1.943258 24.523533-5.827729 9.841136-3.973498 93.072769-2.934842 134.432759 66.526159 22.532179 50.682309 9.885138 84.571141 8.329712 90.055039 0 0-5.351891 13.166881-5.351891 26.118867 0 14.937201 12.044314 24.347524 26.981515 24.347524 12.520151 0 23.00904-1.687432 26.074865-22.837124l0.171915 0C890.706181 326.835813 791.972483 257.286808 720.049407 240.494353L720.049407 240.494353zM720.049407 240.494353" p-id="1868"/> 
    </symbol></svg>