<?xml version="1.0" encoding="utf-8"?>
<svg  xmlns="http://www.w3.org/2000/svg"  viewBox="0 0 500 500">
 <path id="logomark.svg" class="cls-1" d="M89.555,125.691a1.777,1.777,0,1,1-1.777-1.764A1.771,1.771,0,0,1,89.555,125.691Zm46.445,0a1.778,1.778,0,1,1-1.777-1.764A1.771,1.771,0,0,1,136,125.691ZM112.777,85.764A1.777,1.777,0,1,1,111,84,1.77,1.77,0,0,1,112.777,85.764ZM111,139l7.741-13.309H103.259Zm23.223-39.927H118.741l7.741,13.309Zm-46.446,0h15.482l-7.741,13.309Z" transform="translate(-86 -84)"></path>
 <g width="8.938" height="10.06" viewBox="0 0 8.938 10.06">
  <circle id="star_circle1" cx="0.984" cy="1" r="0.984"/>
  <circle id="star_circle2" cx="1.016" cy="9.06" r="0.985"/>
 <circle id="star_circle3" cx="7.938" cy="5.06" r="1"/>
 </g>
</svg>
