<?xml version="1.0" encoding="utf-8"?>
<svg  xmlns="http://www.w3.org/2000/svg"  width="20" height="20" viewBox="0 0 20 20">
    <path  d="M1194.14,118.48c0-.29-0.14-11.1-0.14-11.48,0-.294.01-1.139,0.85-0.883,0.3,0.092,4.45,2.311,4.92,2.568a1.89,1.89,0,0,1,.25,1c0-.092-0.01,11.291-0.02,11.582-0.03.83-.17,1.139-0.89,0.646-0.28-.194-4.42-2.623-4.65-2.788A0.651,0.651,0,0,1,1194.14,118.48Zm6.84-7.9c-0.14.7,0.01,5.585,0.01,5.716,0,0.11,4.93,2.037,5.51,2.415C1206.69,118.838,1201.01,110.428,1200.98,110.581Zm12.03,0.2-5.52,8.309c0.41,0.33,4.06,2.024,4.6,2.287,0.69,0.334.93,0.479,0.91-.338C1212.99,120.735,1213.02,112.311,1213.01,110.782Zm-0.05-1.606c0.02-.077-5-2.867-5.36-3.068a0.984,0.984,0,0,0-1.17.3c-0.22.338-3.2,5.023-3.25,5.115,0.08,0.022,3.61,5.556,3.84,5.868C1207.3,117.108,1212.89,109.384,1212.96,109.176Z" transform="translate(-1193.5 -101)"/>
</svg>